<svg version="1.1" id="Layer_1" xmlns="http://www.w3.org/2000/svg" xmlns:xlink="http://www.w3.org/1999/xlink" x="0px" y="0px" width="100%" viewBox="0 0 1024 1024" enable-background="new 0 0 1024 1024" xml:space="preserve">

<path fill="#D91309" opacity="1.000000" stroke="none" d="
M21.055996,416.108795 
	C27.646776,384.374969 36.561714,353.782349 48.673882,324.146545 
	C70.082779,271.763672 99.313210,224.206512 136.807129,181.812042 
	C198.341949,112.234474 273.360718,63.251911 361.896698,35.059383 
	C399.964752,22.937378 438.947693,15.578013 478.805359,12.852629 
	C540.265747,8.650101 600.509399,15.485618 659.370789,33.545601 
	C728.746094,54.831463 790.813293,89.337990 845.138916,137.606491 
	C900.636719,186.916443 943.251770,245.571671 972.861633,313.633118 
	C992.837280,359.549255 1005.532349,407.423065 1011.132629,457.206207 
	C1015.097351,492.449615 1015.399048,527.736145 1011.829102,562.960144 
	C1005.786621,622.580078 989.601868,679.385010 963.206665,733.278931 
	C938.966858,782.771973 907.536865,827.138611 868.702515,866.161499 
	C830.606689,904.442322 787.560120,936.028320 739.237732,960.378235 
	C689.024170,985.681152 636.081299,1002.274109 580.425049,1009.719177 
	C493.331787,1021.369385 408.796051,1010.897888 327.060303,978.533325 
	C273.149384,957.186401 224.599518,927.068665 181.187790,888.662476 
	C125.453133,839.354126 82.789940,780.526489 53.106251,712.302673 
	C33.258556,666.685486 20.541689,619.147217 14.966637,569.698120 
	C9.175252,518.330200 11.265596,467.283173 21.055996,416.108795 
M780.666260,685.664673 
	C780.492004,685.351929 780.234436,685.250610 779.615295,685.037720 
	C779.615295,685.037720 779.208679,684.909546 778.996094,684.375732 
	C778.647522,684.262390 778.298889,684.149048 777.755859,683.792847 
	C777.755859,683.792847 777.448853,683.742432 777.234802,683.194153 
	C776.886780,683.049683 776.538696,682.905212 776.091858,682.937195 
	C776.091858,682.937195 776.235474,682.794800 776.062744,682.172791 
	C774.999268,681.527710 773.935730,680.882629 772.858765,680.092285 
	C772.858765,680.092285 772.716919,680.126465 772.681030,679.689575 
	C772.482727,679.402161 772.222351,679.325745 771.378784,678.984497 
	C769.433533,677.705872 767.489624,676.425171 765.542847,675.148804 
	C730.758057,652.343262 692.769897,640.227051 651.085693,644.481140 
	C606.819092,648.998779 568.813232,667.657959 538.046997,700.219604 
	C533.838501,704.673645 530.037476,709.512512 526.047791,714.173157 
	C528.043640,714.541321 529.249268,714.089783 530.435364,713.591675 
	C544.389282,707.731018 558.153992,701.362000 572.327698,696.093262 
	C612.517395,681.153564 654.059387,676.000305 696.547485,681.951660 
	C714.768066,684.503906 732.665955,689.359436 751.192871,693.704773 
	C755.814636,695.080444 760.436401,696.456177 765.427795,698.048706 
	C765.427795,698.048706 765.856018,698.065613 766.291260,698.602173 
	C767.176147,698.775940 768.060974,698.949768 768.961914,699.019348 
	C768.961914,699.019348 768.896301,699.101990 769.272949,699.690735 
	C773.205566,701.064697 777.138245,702.438660 781.366028,704.069580 
	C781.366028,704.069580 781.754578,704.116394 782.128662,704.652893 
	C782.754639,704.759583 783.380554,704.866272 784.004150,705.003479 
	C784.004150,705.003479 784.026367,704.981506 784.419739,705.535706 
	C785.286682,705.735291 786.153625,705.934875 787.202087,706.338806 
	C787.202087,706.338806 787.475403,706.344116 787.877502,706.918396 
	C790.963989,708.168457 794.050476,709.418457 797.520081,710.929932 
	C797.520081,710.929932 797.981018,710.981750 798.310547,711.507568 
	C798.894653,711.632996 799.478699,711.758484 800.407532,712.093872 
	C800.407532,712.093872 800.810486,712.116516 801.073120,712.571960 
	C801.395630,712.663513 801.718140,712.755066 802.542480,713.254883 
	C804.013367,713.744141 805.484314,714.233459 806.955200,714.722778 
	C807.130920,714.450134 807.306580,714.177551 807.482239,713.904907 
	C806.820312,713.146729 806.158386,712.388550 804.768066,711.243042 
	C804.541138,711.398438 804.314209,711.553772 804.148193,711.640076 
	C804.148193,711.640076 804.156067,711.548401 804.640076,711.253174 
	C804.590088,711.070923 804.540039,710.888672 804.377686,710.057129 
	C803.636414,709.326965 802.895142,708.596863 802.000000,707.990234 
	C802.000000,707.990234 802.154419,707.871643 802.148987,707.303589 
	C801.726746,706.968872 801.304504,706.634155 800.857605,706.116272 
	C800.857605,706.116272 800.681030,706.061279 800.684570,705.604919 
	C800.544922,705.275879 800.297852,705.135132 799.962280,705.062561 
	C799.962280,705.062561 799.840698,705.059753 799.796326,704.420837 
	C798.891663,703.586609 797.987000,702.752441 796.992981,701.967346 
	C796.992981,701.967346 797.089478,701.938416 797.077698,701.329590 
	C796.758667,701.108276 796.439636,700.886963 795.979431,700.315918 
	C795.979431,700.315918 795.651733,700.129395 795.689392,699.662720 
	C795.536499,699.333496 795.280273,699.193726 794.918030,699.088623 
	C794.918030,699.088623 794.764954,699.065735 794.736450,698.594177 
	C794.561218,698.269165 794.293396,698.146973 793.916504,698.076599 
	C793.916504,698.076599 793.764465,698.074890 793.710327,697.609436 
	C793.541443,697.285889 793.277893,697.159058 792.921021,697.080200 
	C792.921021,697.080200 792.772217,697.082214 792.716492,696.599060 
	C792.525391,696.268555 792.244995,696.151123 791.738220,695.944092 
	C791.738220,695.944092 791.427429,695.826355 791.252991,695.206177 
	C790.899353,694.985107 790.545715,694.764038 789.966614,694.080444 
	C789.568726,693.763550 789.170898,693.446716 788.723694,692.665588 
	C788.543945,692.359314 788.278809,692.234131 787.887329,692.115173 
	C787.887329,692.115173 787.712219,692.075623 787.675415,691.641113 
	C787.507019,691.330566 787.257751,691.238220 786.862793,691.171631 
	C786.862793,691.171631 786.662476,691.138733 786.504456,690.529968 
	C785.319336,689.716370 784.134216,688.902771 782.977112,688.010925 
	C782.977112,688.010925 782.903381,688.049255 782.826538,687.544861 
	C782.525940,687.426941 782.225342,687.308960 781.925476,687.065369 
	C781.925476,687.065369 781.801086,687.083374 781.731140,686.618896 
	C781.525391,686.323792 781.248169,686.220398 780.865051,686.133789 
	C780.865051,686.133789 780.688293,686.111938 780.666260,685.664673 
M735.184448,729.236206 
	C715.391541,728.085693 695.595459,726.986816 675.806396,725.773682 
	C635.577026,723.307495 595.348816,720.820862 555.127747,718.224854 
	C550.085571,717.899414 545.798767,719.006592 541.529602,721.782043 
	C529.472046,729.621033 516.195068,734.533813 501.862823,735.795593 
	C484.175903,737.352661 467.791229,732.619751 452.769958,723.467773 
	C446.251099,719.495972 439.827728,718.025574 432.082245,718.603271 
	C397.203644,721.204712 362.282379,723.249207 327.367493,725.344116 
	C297.434418,727.140076 267.484161,728.649170 237.550629,730.437866 
	C208.455750,732.176453 179.377579,734.196045 150.281586,735.914612 
	C138.409821,736.615906 138.376968,736.403381 138.374283,724.649963 
	C138.343918,591.150818 138.319305,457.651672 138.305511,324.152527 
	C138.305344,322.547485 138.467209,320.942444 138.556488,319.280548 
	C151.823044,319.280548 164.557358,319.280548 177.970764,319.280548 
	C177.970764,447.967285 177.970764,576.288452 177.970764,704.609619 
	C183.619583,697.411865 188.081802,689.867493 193.156281,682.760315 
	C212.905884,655.099731 238.015961,634.106506 270.255707,622.450989 
	C292.334229,614.468994 315.157532,611.779480 338.591827,613.745361 
	C365.517975,616.004089 390.312714,624.251648 413.029785,638.929199 
	C437.662476,654.844482 457.189819,675.725830 473.251648,700.051392 
	C475.350006,703.229309 477.407043,706.434570 479.483215,709.627136 
	C480.415100,707.785889 480.415405,706.307251 480.415039,704.828613 
	C480.381561,572.996704 480.320496,441.164764 480.389740,309.332855 
	C480.393494,302.208496 478.198975,296.530640 473.349030,291.346741 
	C454.286377,270.971466 433.059692,253.601624 407.650421,241.551743 
	C366.714447,222.138641 324.338806,213.901047 279.540405,224.678329 
	C245.049149,232.975998 216.577820,250.388168 196.894684,280.729736 
	C195.878143,282.296722 193.303329,283.584808 191.378067,283.696838 
	C184.899384,284.073669 178.386307,283.850647 171.886429,283.873627 
	C154.055161,283.936737 136.217651,283.747345 118.395020,284.175018 
	C107.844261,284.428192 101.608429,291.123077 100.953262,301.647827 
	C100.777451,304.472198 100.804237,307.311676 100.804306,310.144196 
	C100.806343,394.476501 100.819817,478.808807 100.824799,563.141113 
	C100.828598,627.473755 100.802177,691.806335 100.841156,756.138977 
	C100.848328,767.984070 108.139191,775.464233 119.955536,775.984314 
	C122.279549,776.086670 124.619308,775.946289 126.947212,775.827759 
	C152.399826,774.531555 177.849075,773.167053 203.304092,771.920227 
	C238.750183,770.184082 274.206543,768.650635 309.647278,766.813721 
	C352.071320,764.614868 394.482361,762.165588 436.904419,759.926575 
	C438.944397,759.818909 441.304382,760.208740 443.064270,761.182312 
	C478.153992,780.593811 513.210449,780.509277 548.508850,761.649414 
	C551.800720,759.890503 556.087463,759.252625 559.886780,759.331177 
	C569.201660,759.523560 578.497070,760.520142 587.808411,761.049683 
	C626.894714,763.272461 665.982483,765.469177 705.072632,767.622925 
	C731.855042,769.098572 758.639282,770.546570 785.428162,771.898865 
	C811.885559,773.234436 838.365356,774.177368 864.805908,775.777649 
	C884.630981,776.977539 891.326416,771.134460 891.324036,751.239685 
	C891.306335,602.741760 891.285095,454.243866 891.263123,305.745972 
	C891.260925,290.726685 884.330383,283.835358 869.177307,283.815491 
	C846.011169,283.785156 822.844666,283.712067 799.679260,283.833557 
	C796.434570,283.850555 794.679932,282.778473 792.901550,280.064880 
	C784.620972,267.429565 774.654419,256.312286 762.235535,247.530670 
	C727.434265,222.921997 688.309753,216.361877 647.063477,221.650375 
	C599.219849,227.784760 559.134827,249.838837 525.356262,284.093597 
	C515.316406,294.275085 510.729828,305.020996 510.795441,319.871124 
	C511.364532,448.699646 511.096069,577.531860 511.099457,706.362976 
	C511.099457,707.011414 511.423248,707.659790 511.777832,708.991943 
	C512.798462,707.333008 513.409302,706.361511 513.999573,705.377686 
	C528.130737,681.823914 545.791077,661.330383 567.924438,645.021912 
	C594.913635,625.135498 625.249207,614.282715 658.892578,613.096863 
	C677.017517,612.457947 694.881897,614.353149 712.221985,619.640686 
	C755.128113,632.724060 786.681519,659.954468 809.142334,698.312805 
	C809.821289,699.472290 810.656494,700.540344 811.418823,701.651001 
	C811.709045,701.533691 811.999207,701.416382 812.289429,701.299011 
	C812.289429,637.670166 812.289429,574.041321 812.289429,510.412506 
	C812.289429,446.803284 812.289429,383.194092 812.289429,319.249695 
	C826.201660,319.249695 839.592590,319.249695 853.191650,319.249695 
	C853.191650,458.282623 853.191650,597.002869 853.191650,736.184387 
	C841.009338,735.461914 829.230530,734.761597 817.451538,734.065186 
	C790.342651,732.462524 763.233643,730.861511 735.184448,729.236206 
M352.959259,681.299133 
	C358.875793,682.243286 364.824005,683.023560 370.703491,684.159546 
	C399.138580,689.653625 426.053345,699.732239 452.424316,711.434448 
	C455.601257,712.844238 458.862061,714.064941 462.083984,715.373230 
	C462.282013,714.869629 462.480011,714.366028 462.678009,713.862427 
	C420.449097,663.330261 367.515686,637.558838 300.515778,645.351807 
	C277.257202,648.057190 255.774353,656.576111 235.535034,668.328003 
	C215.417099,680.009338 198.858109,695.589478 184.710434,714.227051 
	C211.500214,703.692566 238.046265,692.758484 266.296844,686.773865 
	C294.660614,680.765259 323.151733,677.902832 352.959259,681.299133 
z" data-index="1" style="opacity: 1;"></path>
<path fill="#FEFDFD" opacity="1.000000" stroke="none" d="
M735.654541,729.248047 
	C763.233643,730.861511 790.342651,732.462524 817.451538,734.065186 
	C829.230530,734.761597 841.009338,735.461914 853.191650,736.184387 
	C853.191650,597.002869 853.191650,458.282623 853.191650,319.249695 
	C839.592590,319.249695 826.201660,319.249695 812.289429,319.249695 
	C812.289429,383.194092 812.289429,446.803284 812.289429,510.412506 
	C812.289429,574.041321 812.289429,637.670166 812.289429,701.299011 
	C811.999207,701.416382 811.709045,701.533691 811.418823,701.651001 
	C810.656494,700.540344 809.821289,699.472290 809.142334,698.312805 
	C786.681519,659.954468 755.128113,632.724060 712.221985,619.640686 
	C694.881897,614.353149 677.017517,612.457947 658.892578,613.096863 
	C625.249207,614.282715 594.913635,625.135498 567.924438,645.021912 
	C545.791077,661.330383 528.130737,681.823914 513.999573,705.377686 
	C513.409302,706.361511 512.798462,707.333008 511.777832,708.991943 
	C511.423248,707.659790 511.099457,707.011414 511.099457,706.362976 
	C511.096069,577.531860 511.364532,448.699646 510.795441,319.871124 
	C510.729828,305.020996 515.316406,294.275085 525.356262,284.093597 
	C559.134827,249.838837 599.219849,227.784760 647.063477,221.650375 
	C688.309753,216.361877 727.434265,222.921997 762.235535,247.530670 
	C774.654419,256.312286 784.620972,267.429565 792.901550,280.064880 
	C794.679932,282.778473 796.434570,283.850555 799.679260,283.833557 
	C822.844666,283.712067 846.011169,283.785156 869.177307,283.815491 
	C884.330383,283.835358 891.260925,290.726685 891.263123,305.745972 
	C891.285095,454.243866 891.306335,602.741760 891.324036,751.239685 
	C891.326416,771.134460 884.630981,776.977539 864.805908,775.777649 
	C838.365356,774.177368 811.885559,773.234436 785.428162,771.898865 
	C758.639282,770.546570 731.855042,769.098572 705.072632,767.622925 
	C665.982483,765.469177 626.894714,763.272461 587.808411,761.049683 
	C578.497070,760.520142 569.201660,759.523560 559.886780,759.331177 
	C556.087463,759.252625 551.800720,759.890503 548.508850,761.649414 
	C513.210449,780.509277 478.153992,780.593811 443.064270,761.182312 
	C441.304382,760.208740 438.944397,759.818909 436.904419,759.926575 
	C394.482361,762.165588 352.071320,764.614868 309.647278,766.813721 
	C274.206543,768.650635 238.750183,770.184082 203.304092,771.920227 
	C177.849075,773.167053 152.399826,774.531555 126.947212,775.827759 
	C124.619308,775.946289 122.279549,776.086670 119.955536,775.984314 
	C108.139191,775.464233 100.848328,767.984070 100.841156,756.138977 
	C100.802177,691.806335 100.828598,627.473755 100.824799,563.141113 
	C100.819817,478.808807 100.806343,394.476501 100.804306,310.144196 
	C100.804237,307.311676 100.777451,304.472198 100.953262,301.647827 
	C101.608429,291.123077 107.844261,284.428192 118.395020,284.175018 
	C136.217651,283.747345 154.055161,283.936737 171.886429,283.873627 
	C178.386307,283.850647 184.899384,284.073669 191.378067,283.696838 
	C193.303329,283.584808 195.878143,282.296722 196.894684,280.729736 
	C216.577820,250.388168 245.049149,232.975998 279.540405,224.678329 
	C324.338806,213.901047 366.714447,222.138641 407.650421,241.551743 
	C433.059692,253.601624 454.286377,270.971466 473.349030,291.346741 
	C478.198975,296.530640 480.393494,302.208496 480.389740,309.332855 
	C480.320496,441.164764 480.381561,572.996704 480.415039,704.828613 
	C480.415405,706.307251 480.415100,707.785889 479.483215,709.627136 
	C477.407043,706.434570 475.350006,703.229309 473.251648,700.051392 
	C457.189819,675.725830 437.662476,654.844482 413.029785,638.929199 
	C390.312714,624.251648 365.517975,616.004089 338.591827,613.745361 
	C315.157532,611.779480 292.334229,614.468994 270.255707,622.450989 
	C238.015961,634.106506 212.905884,655.099731 193.156281,682.760315 
	C188.081802,689.867493 183.619583,697.411865 177.970764,704.609619 
	C177.970764,576.288452 177.970764,447.967285 177.970764,319.280548 
	C164.557358,319.280548 151.823044,319.280548 138.556488,319.280548 
	C138.467209,320.942444 138.305344,322.547485 138.305511,324.152527 
	C138.319305,457.651672 138.343918,591.150818 138.374283,724.649963 
	C138.376968,736.403381 138.409821,736.615906 150.281586,735.914612 
	C179.377579,734.196045 208.455750,732.176453 237.550629,730.437866 
	C267.484161,728.649170 297.434418,727.140076 327.367493,725.344116 
	C362.282379,723.249207 397.203644,721.204712 432.082245,718.603271 
	C439.827728,718.025574 446.251099,719.495972 452.769958,723.467773 
	C467.791229,732.619751 484.175903,737.352661 501.862823,735.795593 
	C516.195068,734.533813 529.472046,729.621033 541.529602,721.782043 
	C545.798767,719.006592 550.085571,717.899414 555.127747,718.224854 
	C595.348816,720.820862 635.577026,723.307495 675.806396,725.773682 
	C695.595459,726.986816 715.391541,728.085693 735.654541,729.248047 
z" data-index="2" style="opacity: 1;"></path>
<path fill="#FBF8F8" opacity="1.000000" stroke="none" d="
M352.521637,681.226074 
	C323.151733,677.902832 294.660614,680.765259 266.296844,686.773865 
	C238.046265,692.758484 211.500214,703.692566 184.710434,714.227051 
	C198.858109,695.589478 215.417099,680.009338 235.535034,668.328003 
	C255.774353,656.576111 277.257202,648.057190 300.515778,645.351807 
	C367.515686,637.558838 420.449097,663.330261 462.678009,713.862427 
	C462.480011,714.366028 462.282013,714.869629 462.083984,715.373230 
	C458.862061,714.064941 455.601257,712.844238 452.424316,711.434448 
	C426.053345,699.732239 399.138580,689.653625 370.703491,684.159546 
	C364.824005,683.023560 358.875793,682.243286 352.521637,681.226074 
z" data-index="3"></path>
<path fill="#FBF9F8" opacity="1.000000" stroke="none" d="
M797.981018,710.981750 
	C797.981018,710.981750 797.520081,710.929932 797.235840,710.468628 
	C793.792847,708.786316 790.634094,707.565186 787.475403,706.344116 
	C787.475403,706.344116 787.202087,706.338806 786.935913,705.934204 
	C785.788635,705.346924 784.907532,705.164246 784.026367,704.981567 
	C784.026367,704.981506 784.004150,705.003479 783.831421,704.703369 
	C783.023926,704.307617 782.389282,704.212036 781.754578,704.116394 
	C781.754578,704.116394 781.366028,704.069580 781.055603,703.631287 
	C776.795593,701.829346 772.845947,700.465637 768.896301,699.101929 
	C768.896301,699.101990 768.961914,699.019348 768.764832,698.771790 
	C767.663818,698.371399 766.759949,698.218506 765.856018,698.065613 
	C765.856018,698.065613 765.427795,698.048706 765.069702,697.630981 
	C760.044617,695.864990 755.377502,694.516724 750.710449,693.168457 
	C732.665955,689.359436 714.768066,684.503906 696.547485,681.951660 
	C654.059387,676.000305 612.517395,681.153564 572.327698,696.093262 
	C558.153992,701.362000 544.389282,707.731018 530.435364,713.591675 
	C529.249268,714.089783 528.043640,714.541321 526.047791,714.173157 
	C530.037476,709.512512 533.838501,704.673645 538.046997,700.219604 
	C568.813232,667.657959 606.819092,648.998779 651.085693,644.481140 
	C692.769897,640.227051 730.758057,652.343262 765.542847,675.148804 
	C767.489624,676.425171 769.433533,677.705872 771.696777,679.412842 
	C772.190491,680.080017 772.424561,680.175049 772.716919,680.126465 
	C772.716919,680.126465 772.858765,680.092285 772.914917,680.487732 
	C774.059204,681.520386 775.147339,682.157593 776.235474,682.794800 
	C776.235474,682.794800 776.091858,682.937195 776.219116,683.147095 
	C776.713867,683.485413 777.081360,683.613892 777.448853,683.742432 
	C777.448853,683.742432 777.755859,683.792847 777.967651,684.174500 
	C778.522522,684.673950 778.865601,684.791748 779.208679,684.909546 
	C779.208679,684.909546 779.615295,685.037720 779.803040,685.398560 
	C780.150940,686.020203 780.383423,686.137695 780.688293,686.111938 
	C780.688293,686.111938 780.865051,686.133789 780.940308,686.437134 
	C781.208374,687.012878 781.470215,687.127197 781.801086,687.083374 
	C781.801086,687.083374 781.925476,687.065369 781.990540,687.362793 
	C782.259094,687.962341 782.541687,688.091980 782.903381,688.049255 
	C782.903381,688.049255 782.977112,688.010925 782.979736,688.387695 
	C784.209045,689.555847 785.435730,690.347290 786.662476,691.138733 
	C786.662476,691.138733 786.862793,691.171631 786.930542,691.468628 
	C787.169556,692.022461 787.407532,692.125854 787.712219,692.075623 
	C787.712219,692.075623 787.887329,692.115173 787.947998,692.421814 
	C788.187317,693.007141 788.442078,693.140991 788.773010,693.129883 
	C789.170898,693.446716 789.568726,693.763550 790.123474,694.651367 
	C790.662659,695.423706 791.045044,695.625061 791.427429,695.826355 
	C791.427429,695.826355 791.738220,695.944092 791.864380,696.317749 
	C792.172424,696.979370 792.432983,697.109619 792.772217,697.082214 
	C792.772217,697.082214 792.921021,697.080200 792.960815,697.376831 
	C793.171448,697.966736 793.426086,698.100525 793.764465,698.074890 
	C793.764465,698.074890 793.916504,698.076599 793.963013,698.372314 
	C794.178101,698.958740 794.429932,699.091309 794.764954,699.065735 
	C794.764954,699.065735 794.918030,699.088623 794.939453,699.380371 
	C795.099182,699.963562 795.329407,700.115967 795.651733,700.129395 
	C795.651733,700.129395 795.979431,700.315918 796.065186,700.793518 
	C796.463806,701.493530 796.776672,701.715942 797.089478,701.938416 
	C797.089478,701.938416 796.992981,701.967346 797.003662,702.282043 
	C797.956482,703.417786 798.898560,704.238770 799.840698,705.059753 
	C799.840698,705.059753 799.962280,705.062561 799.965088,705.343323 
	C800.105530,705.933105 800.343201,706.078857 800.681030,706.061279 
	C800.681030,706.061279 800.857605,706.116272 800.870361,706.499023 
	C801.306946,707.211731 801.730652,707.541687 802.154419,707.871643 
	C802.154419,707.871643 802.000000,707.990234 802.038513,708.284851 
	C802.881348,709.288452 803.685669,709.997437 804.490051,710.706421 
	C804.540039,710.888672 804.590088,711.070923 804.055969,711.546448 
	C802.981262,711.886963 802.490601,711.934143 801.698486,711.978333 
	C801.201416,712.022339 801.005981,712.069458 800.810486,712.116516 
	C800.810486,712.116516 800.407532,712.093872 800.068665,711.725342 
	C799.146851,711.231750 798.563965,711.106750 797.981018,710.981750 
z" data-index="4"></path>
<path fill="#DDC5C4" opacity="1.000000" stroke="none" d="
M750.951660,693.436646 
	C755.377502,694.516724 760.044617,695.864990 764.884888,697.522583 
	C760.436401,696.456177 755.814636,695.080444 750.951660,693.436646 
z" data-index="5"></path>
<path fill="#DDC5C4" opacity="1.000000" stroke="none" d="
M769.084595,699.396362 
	C772.845947,700.465637 776.795593,701.829346 780.908020,703.502808 
	C777.138245,702.438660 773.205566,701.064697 769.084595,699.396362 
z" data-index="6"></path>
<path fill="#DDC5C4" opacity="1.000000" stroke="none" d="
M787.676453,706.631226 
	C790.634094,707.565186 793.792847,708.786316 797.044250,710.337952 
	C794.050476,709.418457 790.963989,708.168457 787.676453,706.631226 
z" data-index="7"></path>
<path fill="#DCC5C4" opacity="1.000000" stroke="none" d="
M802.000000,711.981384 
	C802.490601,711.934143 802.981262,711.886963 803.813965,711.694092 
	C804.156067,711.548401 804.148193,711.640076 804.199219,711.924927 
	C804.665649,712.016663 805.080994,711.823486 805.496399,711.630371 
	C806.158386,712.388550 806.820312,713.146729 807.482239,713.904907 
	C807.306580,714.177551 807.130920,714.450134 806.955200,714.722778 
	C805.484314,714.233459 804.013367,713.744141 802.275635,712.834839 
	C802.008850,712.414856 802.000000,711.981384 802.000000,711.981384 
z" data-index="8"></path>
<path fill="#DCC5C4" opacity="1.000000" stroke="none" d="
M786.583496,690.834351 
	C785.435730,690.347290 784.209045,689.555847 782.965698,688.426819 
	C784.134216,688.902771 785.319336,689.716370 786.583496,690.834351 
z" data-index="9"></path>
<path fill="#DCC5C4" opacity="1.000000" stroke="none" d="
M799.818481,704.740295 
	C798.898560,704.238770 797.956482,703.417786 797.048340,702.257507 
	C797.987000,702.752441 798.891663,703.586609 799.818481,704.740295 
z" data-index="10"></path>
<path fill="#DCC5C4" opacity="1.000000" stroke="none" d="
M776.149109,682.483765 
	C775.147339,682.157593 774.059204,681.520386 772.921631,680.560364 
	C773.935730,680.882629 774.999268,681.527710 776.149109,682.483765 
z" data-index="11"></path>
<path fill="#DCC5C4" opacity="1.000000" stroke="none" d="
M804.433838,710.381775 
	C803.685669,709.997437 802.881348,709.288452 802.115417,708.223145 
	C802.895142,708.596863 803.636414,709.326965 804.433838,710.381775 
z" data-index="12"></path>
<path fill="#DDC5C4" opacity="1.000000" stroke="none" d="
M784.223022,705.258667 
	C784.907532,705.164246 785.788635,705.346924 786.845215,705.832031 
	C786.153625,705.934875 785.286682,705.735291 784.223022,705.258667 
z" data-index="13"></path>
<path fill="#DDC5C4" opacity="1.000000" stroke="none" d="
M766.073608,698.333862 
	C766.759949,698.218506 767.663818,698.371399 768.756836,698.823914 
	C768.060974,698.949768 767.176147,698.775940 766.073608,698.333862 
z" data-index="14"></path>
<path fill="#DCC5C4" opacity="1.000000" stroke="none" d="
M802.151733,707.587646 
	C801.730652,707.541687 801.306946,707.211731 800.882690,706.590637 
	C801.304504,706.634155 801.726746,706.968872 802.151733,707.587646 
z" data-index="15"></path>
<path fill="#DDC5C4" opacity="1.000000" stroke="none" d="
M798.145752,711.244629 
	C798.563965,711.106750 799.146851,711.231750 799.896301,711.620361 
	C799.478699,711.758484 798.894653,711.632996 798.145752,711.244629 
z" data-index="16"></path>
<path fill="#DDC5C4" opacity="1.000000" stroke="none" d="
M781.941650,704.384644 
	C782.389282,704.212036 783.023926,704.307617 783.832581,704.688110 
	C783.380554,704.866272 782.754639,704.759583 781.941650,704.384644 
z" data-index="17"></path>
<path fill="#DDC5C4" opacity="1.000000" stroke="none" d="
M801.698486,711.978333 
	C802.000000,711.981384 802.008850,712.414856 802.024780,712.630737 
	C801.718140,712.755066 801.395630,712.663513 800.941772,712.344238 
	C801.005981,712.069458 801.201416,712.022339 801.698486,711.978333 
z" data-index="18"></path>
<path fill="#DCC5C4" opacity="1.000000" stroke="none" d="
M800.682800,705.833130 
	C800.343201,706.078857 800.105530,705.933105 799.955688,705.403381 
	C800.297852,705.135132 800.544922,705.275879 800.682800,705.833130 
z" data-index="19"></path>

<path fill="#DCC5C4" opacity="1.000000" stroke="none" d="
M794.750732,698.829956 
	C794.429932,699.091309 794.178101,698.958740 793.971313,698.447876 
	C794.293396,698.146973 794.561218,698.269165 794.750732,698.829956 
z" data-index="21"></path>
<path fill="#DCC5C4" opacity="1.000000" stroke="none" d="
M797.083618,701.634033 
	C796.776672,701.715942 796.463806,701.493530 796.135742,700.968384 
	C796.439636,700.886963 796.758667,701.108276 797.083618,701.634033 
z" data-index="22"></path>
<path fill="#DCC5C4" opacity="1.000000" stroke="none" d="
M795.670532,699.896057 
	C795.329407,700.115967 795.099182,699.963562 794.940918,699.457764 
	C795.280273,699.193726 795.536499,699.333496 795.670532,699.896057 
z" data-index="23"></path>
<path fill="#DCC5C4" opacity="1.000000" stroke="none" d="
M793.737427,697.842163 
	C793.426086,698.100525 793.171448,697.966736 792.960083,697.451294 
	C793.277893,697.159058 793.541443,697.285889 793.737427,697.842163 
z" data-index="24"></path>
<path fill="#DCC5C4" opacity="1.000000" stroke="none" d="
M792.744385,696.840637 
	C792.432983,697.109619 792.172424,696.979370 791.932861,696.469177 
	C792.244995,696.151123 792.525391,696.268555 792.744385,696.840637 
z" data-index="25"></path>
<path fill="#DCC5C4" opacity="1.000000" stroke="none" d="
M791.340210,695.516235 
	C791.045044,695.625061 790.662659,695.423706 790.236206,694.882690 
	C790.545715,694.764038 790.899353,694.985107 791.340210,695.516235 
z" data-index="26"></path>
<path fill="#DCC5C4" opacity="1.000000" stroke="none" d="
M788.748352,692.897705 
	C788.442078,693.140991 788.187317,693.007141 787.968506,692.509216 
	C788.278809,692.234131 788.543945,692.359314 788.748352,692.897705 
z" data-index="27"></path>
<path fill="#DCC5C4" opacity="1.000000" stroke="none" d="
M787.693848,691.858398 
	C787.407532,692.125854 787.169556,692.022461 786.963013,691.564819 
	C787.257751,691.238220 787.507019,691.330566 787.693848,691.858398 
z" data-index="28"></path>
<path fill="#DCC5C4" opacity="1.000000" stroke="none" d="
M782.864990,687.797058 
	C782.541687,688.091980 782.259094,687.962341 781.990173,687.425659 
	C782.225342,687.308960 782.525940,687.426941 782.864990,687.797058 
z" data-index="29"></path>
<path fill="#DCC5C4" opacity="1.000000" stroke="none" d="
M781.766113,686.851135 
	C781.470215,687.127197 781.208374,687.012878 780.957520,686.524536 
	C781.248169,686.220398 781.525391,686.323792 781.766113,686.851135 
z" data-index="30"></path>
<path fill="#DCC5C4" opacity="1.000000" stroke="none" d="
M780.677246,685.888306 
	C780.383423,686.137695 780.150940,686.020203 779.942261,685.560059 
	C780.234436,685.250610 780.492004,685.351929 780.677246,685.888306 
z" data-index="31"></path>
<path fill="#DCC5C4" opacity="1.000000" stroke="none" d="
M779.102417,684.642639 
	C778.865601,684.791748 778.522522,684.673950 778.064880,684.295898 
	C778.298889,684.149048 778.647522,684.262390 779.102417,684.642639 
z" data-index="32"></path>
<path fill="#DCC5C4" opacity="1.000000" stroke="none" d="
M777.341797,683.468262 
	C777.081360,683.613892 776.713867,683.485413 776.268555,683.058838 
	C776.538696,682.905212 776.886780,683.049683 777.341797,683.468262 
z" data-index="33"></path>
<path fill="#DCC5C4" opacity="1.000000" stroke="none" d="
M772.698975,679.908020 
	C772.424561,680.175049 772.190491,680.080017 771.957336,679.650757 
	C772.222351,679.325745 772.482727,679.402161 772.698975,679.908020 
z" data-index="34"></path>
</svg>